<svg xmlns="http://www.w3.org/2000/svg" xmlns:xlink="http://www.w3.org/1999/xlink" viewBox="0,0,255.98959,255.98959" width="500px" height="500px"><g transform="translate(-51.19792,-51.19792) scale(1.4,1.4)"><g fill="#dddddd" fill-rule="nonzero" stroke="none" stroke-width="1" stroke-linecap="butt" stroke-linejoin="miter" stroke-miterlimit="10" stroke-dasharray="" stroke-dashoffset="0" font-family="none" font-weight="none" font-size="none" text-anchor="none" style="mix-blend-mode: normal"><path d="M36.56994,219.41965v-182.84971h182.84971v182.84971z" id="bgRectangle"></path></g><g fill="#000000" fill-rule="nonzero" stroke="none" stroke-width="1" stroke-linecap="butt" stroke-linejoin="miter" stroke-miterlimit="10" stroke-dasharray="" stroke-dashoffset="0" font-family="none" font-weight="none" font-size="none" text-anchor="none" style="mix-blend-mode: normal"><g transform="scale(5.12,5.12)"><path d="M41,4h-32c-2.76,0 -5,2.24 -5,5v32c0,2.76 2.24,5 5,5h32c2.76,0 5,-2.24 5,-5v-32c0,-2.76 -2.24,-5 -5,-5zM16.06,19.06c0.51,-0.58 1.31,-0.96 2.02,-1.06c0.1,0.77 -0.2,1.55 -0.61,2.03c-0.5,0.58 -1.21,0.97 -2.01,0.97c-0.2,-0.68 0.1,-1.35 0.6,-1.94zM20.39,29.1c-0.6,0.8 -1.41,1.9 -2.31,1.9c-0.91,0 -1.11,-0.6 -2.22,-0.5c-1.21,0 -1.41,0.6 -2.32,0.5c-1,0 -1.71,-0.9 -2.21,-1.8c-1.51,-2.3 -1.71,-5.1 -0.71,-6.6c0.71,-1 1.71,-1.6 2.72,-1.6c1.01,0 1.71,0.6 2.52,0.6c0.81,0 1.31,-0.6 2.52,-0.6c0.91,0 1.81,0.5 2.52,1.3c-2.22,1.2 -1.82,4.3 0.4,5.2c-0.4,0.7 -0.6,1 -0.91,1.6zM29.4,22.38h-2.6v5.22c0,1.2 0.3,1.9 1.4,1.9c0.5,0 0.8,0 1,-0.1l0.1,1.4c-0.3,0.1 -0.9,0.2 -1.6,0.2c-0.8,0 -1.5,-0.3 -2,-0.8c-0.5,-0.6 -0.7,-1.4 -0.7,-2.6v-5.22h-1.5v-1.38h1.5v-2.5l1.8,-0.5v3h2.6zM36.11,31h-1.7l-3.79,-10h1.9l1.99,5.6c0.3,0.9 0.6,1.7 0.8,2.6h0.1c0.2,-0.8 0.5,-1.6 0.8,-2.6l1.9,-5.6h1.89z"></path></g></g></g></svg>