<svg xmlns="http://www.w3.org/2000/svg" xmlns:xlink="http://www.w3.org/1999/xlink" viewBox="0,0,255.98959,255.98959" width="50px" height="50px"><g fill="#d1d5db" fill-rule="nonzero" stroke="none" stroke-width="1" stroke-linecap="butt" stroke-linejoin="miter" stroke-miterlimit="10" stroke-dasharray="" stroke-dashoffset="0" font-family="none" font-weight="none" font-size="none" text-anchor="none" style="mix-blend-mode: normal"><g transform="scale(5.12,5.12)"><path d="M13,4c-4.962,0 -9,4.037 -9,9v24c0,4.963 4.038,9 9,9h24c4.962,0 9,-4.037 9,-9v-24c0,-4.963 -4.038,-9 -9,-9zM13,6h24c3.86,0 7,3.141 7,7v24c0,3.859 -3.14,7 -7,7h-24c-3.86,0 -7,-3.141 -7,-7v-24c0,-3.859 3.14,-7 7,-7zM25.74219,15.01367c-5.214,0 -9.78525,2.72367 -12.28125,6.76367c-0.04,0.064 0.00508,0.15025 0.08008,0.15625l0.57226,0.22266c0.073,0.006 0.14164,-0.0298 0.18164,-0.0918c2.349,-3.742 6.58403,-6.25586 11.45703,-6.25586c5.798,0 10.70617,3.55181 12.57617,8.50781c0.029,0.076 0.10159,0.12695 0.18359,0.12695h0.5957c0.07,0 0.1187,-0.07072 0.0957,-0.13672c-1.906,-5.398 -7.21794,-9.29297 -13.46094,-9.29297zM11.39648,22.40625c-0.44234,-0.01808 -0.91253,-0.004 -1.45703,0.03125c-2.178,0.141 -2.17639,1.22962 -1.65039,1.26563c0.311,0.021 0.48708,0.04369 0.58008,0.05469c0.078,0.009 0.08923,-0.00992 0.11523,-0.04492c0.022,-0.03 0.03197,-0.07652 0.04297,-0.10352c0.019,-0.049 -0.00288,-0.09819 -0.04687,-0.11719c-0.045,-0.02 -0.55078,-0.24414 -0.55078,-0.24414c0,0 2.74048,-0.70274 6.14648,0.94727c3.406,1.65 4.28394,3.79366 3.33594,4.84766c-0.948,1.054 -2.59777,1.582 -4.63477,1.125c-0.035,-1.44 0.03516,-2.49414 0.03516,-2.49414c0,0 1.89667,-0.0717 2.38867,0.2793c0.42,0.3 0.17348,0.49823 -0.10352,0.61523c-0.048,0.02 -0.05081,0.10586 -0.00781,0.13086c0.393,0.218 0.70428,0.26888 0.98828,-0.07812c0.316,-0.386 0.66769,-2.03664 -3.19531,-1.93164c-0.07,-0.667 0.14208,-1.12401 -0.41992,-1.79102c-0.562,-0.671 -0.5625,1.82422 -0.5625,1.82422c0,0 -1.44077,0.20874 -2.63477,1.05273c-1.194,0.844 2.45898,2.88086 2.45898,2.88086c0,0 0.0687,0.91353 0.5957,1.01953c0.527,0.105 0.49219,-0.66797 0.49219,-0.66797c0,0 3.16053,0.91373 5.26953,-0.94727c2.106,-1.863 0.13812,-4.8478 -2.67187,-6.2168c-2.1075,-1.0275 -3.18664,-1.38327 -4.51367,-1.4375zM21.08203,22.89453c-0.18108,-0.01645 -0.39292,0.00006 -0.63867,0.07031c-0.983,0.281 -2.21198,1.57988 -1.33398,2.42188c0,0.386 0.10486,1.12403 0.63086,0.45703c0.561,0.247 1.65052,0.07214 2.35352,-0.63086c0.702,-0.702 1.01806,-2.00359 -0.21094,-1.93359c0,0 -0.25755,-0.33541 -0.80078,-0.38477zM20.51172,23.63281c0,0 -0.94689,0.77136 -1.08789,1.19336c-0.106,-0.527 0.17489,-1.01836 1.08789,-1.19336zM21.83984,23.86133c0.59086,-0.07186 0.29228,0.69741 -0.16797,1.03516c-0.527,0.386 -1.05455,0.49241 -1.68555,0.31641c0,0 0.55997,-0.87862 1.54297,-1.26562c0.12288,-0.04825 0.22614,-0.07567 0.31055,-0.08594zM39.41211,25.45117c-0.287,0 -0.33156,0.00195 -0.60156,0.00195c-0.078,0.002 -0.13133,0.07639 -0.11133,0.15039c0.088,0.323 0.21581,1.14641 0.25781,2.06641h-2.00781c-0.062,0 -0.11419,0.05033 -0.11719,0.11133l-0.05273,0.5332c-0.004,0.085 0.0693,0.15548 0.1543,0.14648l2.04883,0.00586c0.012,0.754 0.01713,1.20691 -0.04687,2.00391c-0.008,0.053 0.03389,0.09856 0.08789,0.10156c0.322,0.02 0.52448,0.04488 0.64648,0.04688c0.049,0.001 0.08975,-0.03694 0.09375,-0.08594c0.019,-0.256 0.06597,-1.0585 0.04297,-2.0625l2.08008,0.00586c0.065,0 0.11719,-0.05219 0.11719,-0.11719v-0.57422c0.003,-0.063 -0.05123,-0.11328 -0.11523,-0.11328h-2.11328c-0.044,-0.699 -0.1292,-1.44548 -0.2832,-2.14648c-0.008,-0.039 -0.04008,-0.07122 -0.08008,-0.07422zM27.24219,25.89258c-0.29794,-0.01528 0.03148,1.05011 0.08398,1.28711c0.07,0.316 0.35156,1.50995 0.35156,2.00195c-0.351,-0.527 -0.91425,-1.58127 -1.40625,-2.07227c-0.492,-0.492 -0.63086,-0.07031 -0.63086,-0.07031c0,0 -0.49256,1.79022 -0.35156,2.94922c0.141,1.159 0.73744,0.351 0.77344,0c0.035,-0.351 0.10547,-1.51017 0.10547,-1.82617c0.316,0.702 0.80736,1.51144 1.19336,1.89844c0.386,0.386 0.77406,0.14006 0.91406,-0.21094c0.141,-0.351 0.59681,-2.24772 -0.49219,-3.51172c-0.272,-0.316 -0.4417,-0.44022 -0.54102,-0.44531zM33.58008,26.53516c-0.13025,-0.0255 -0.32031,0.04688 -0.32031,0.04688c0,0 -1.79153,1.50947 -1.01953,3.23047c-0.527,1.299 -1.36962,3.16053 -0.14062,4.14453c0.316,0.21 0.21041,-0.42144 0.31641,-0.77344c0.106,-0.352 0.45759,-2.14081 0.80859,-2.63281c0.843,-0.07 2.35166,-0.38692 2.59766,-2.66992c0.107,-1.475 -1.22591,-1.15981 -1.75391,-0.63281c-0.527,0.527 -1.43945,1.89844 -1.43945,1.89844c0.106,-0.913 0.35011,-1.15927 0.91211,-2.07227c0.24,-0.39 0.16931,-0.51356 0.03906,-0.53906zM23.59766,26.54688c-0.64538,0 -1.45206,0.10439 -2.10156,0.52539c-0.632,0.421 -0.45647,1.19547 -0.10547,1.23047c0.351,0.035 2.1405,0.10477 2.5625,0.38477c0.422,0.28 0.52731,0.49244 0.07031,0.77344c-0.457,0.281 -1.47448,0.42125 -1.89648,0.28125c-0.421,-0.141 -0.56106,-0.87819 0.21094,-0.49219c0.773,0.386 2.17652,-0.07072 1.22852,-0.38672c-0.948,-0.316 -1.72089,-0.24358 -2.21289,0.10742c-0.492,0.351 0.17728,1.08898 0.73828,1.33398c0.562,0.245 1.61605,0.31569 2.24805,-0.07031c0.632,-0.386 0.94769,-1.86142 -0.07031,-2.10742c-1.019,-0.245 -1.65142,-0.21025 -2.10742,-0.28125c-0.457,-0.07 -0.24481,-0.24541 0.49219,-0.31641c0.737,-0.07 1.26448,-0.10498 1.89648,-0.20898c0.632,-0.106 0.66678,-0.56297 0.17578,-0.66797c0,0 -0.48353,-0.10547 -1.12891,-0.10547zM31.29297,26.61719c-0.492,-0.035 -1.54605,0.10514 -2.24805,0.24414c-0.702,0.141 0.45703,0.66797 0.45703,0.66797c0,0 -0.10514,0.35166 -0.24414,0.59766c-0.421,0.07 -0.38709,0.31486 -0.24609,0.63086c-0.281,0.737 -0.42028,1.65064 0.38672,1.93164c0.808,0.281 1.75462,-0.45548 2.14062,-0.77148c0.386,-0.316 -0.07003,-0.6317 -0.45703,-0.5957c-0.386,0.035 -1.50977,0.20898 -1.50977,0.20898l0.24609,-0.73633c0,0 0.73699,0.03484 1.33398,-0.03516c0.597,-0.07 0.17584,-0.73633 -0.03516,-0.73633h-0.98242l0.17578,-0.49219c0,0 1.29775,-0.03447 1.71875,-0.10547c0.421,-0.07 -0.24433,-0.77359 -0.73633,-0.80859zM20.13477,26.7168c-0.06681,0.01972 -0.13109,0.07639 -0.18359,0.18164c0,0 -0.17547,2.03678 -0.10547,3.30078c0.035,0.527 0.87695,0.63147 0.87695,0.10547c0,-0.527 -0.03447,-2.63464 -0.10547,-3.05664c-0.0525,-0.31575 -0.28198,-0.59041 -0.48242,-0.53125zM35.1543,27.64453c0.16647,-0.02309 0.22133,0.17055 0.00195,0.76367c-0.351,0.948 -1.54492,1.08984 -1.54492,1.08984c0,0 0.7722,-1.26423 1.1582,-1.61523c0.14513,-0.13162 0.28489,-0.22443 0.38477,-0.23828zM12.32813,27.66992l-0.06836,2.24805c0,0 -1.19433,-0.49284 -1.86133,-1.08984c-0.667,-0.597 -0.45663,-0.70048 -0.14063,-0.77148c0.316,-0.07 1.54431,-0.38672 2.07031,-0.38672z"></path></g></g></svg>