<svg xmlns="http://www.w3.org/2000/svg" width="25" height="24" fill="none" viewBox="0 0 25 24"
    id="disney-plus">
    <rect width="24" height="24" x=".463" fill="url(#a)" rx="8"></rect>
    <path fill="#fff" fill-rule="evenodd"
        d="M5.51956 9.14105C5.68641 9.23274 5.79949 9.41015 5.79949 9.61398C5.79949 9.9118 5.55806 10.1532 5.26023 10.1532C4.98941 10.1532 4.66141 10.1264 4.40361 9.97112C4.25729 9.883 4.12153 9.74608 4.04994 9.55046C3.98082 9.36161 3.99232 9.17475 4.03103 9.01862C4.14644 8.55319 4.55369 8.31342 4.89802 8.19219C5.26341 8.06355 5.71888 8.00695 6.20616 8.0006C7.18815 7.98781 8.43097 8.17812 9.65371 8.56117C10.8754 8.94388 12.1175 9.53162 13.0745 10.3414C14.0349 11.1541 14.7436 12.2242 14.7869 13.5509C14.8065 14.1526 14.6636 14.677 14.3737 15.1108C14.0865 15.5408 13.6779 15.8477 13.2192 16.0581C12.3159 16.4723 11.1557 16.5427 10.0584 16.4209C9.83398 16.396 9.60906 16.3627 9.386 16.3216L9.39255 16.3977C9.4184 16.6945 9.19883 16.9559 8.90213 16.9818C8.60543 17.0076 8.34396 16.7881 8.31811 16.4913C8.30491 16.3398 8.29298 16.193 8.28226 16.0505C7.8123 15.9044 7.37143 15.7251 6.9858 15.5198C6.56207 15.2942 6.18027 15.0241 5.90211 14.7104C5.62403 14.3969 5.41534 13.9981 5.44081 13.5386C5.46229 13.1511 5.73684 12.9046 5.94362 12.7696C6.16664 12.624 6.44879 12.5148 6.74058 12.4306C7.17725 12.3045 7.70654 12.2144 8.2566 12.1603C8.26943 11.9032 8.28385 11.6358 8.29914 11.3523L8.29915 11.3523L8.31684 11.0232C8.33274 10.7258 8.58671 10.4976 8.88411 10.5135C9.18151 10.5294 9.40972 10.7833 9.39382 11.0807L9.37648 11.4034L9.37646 11.4036C9.36332 11.6475 9.35087 11.8785 9.33956 12.1003C9.9298 12.0924 10.5132 12.1259 11.007 12.2084C11.3212 12.261 11.623 12.3372 11.8736 12.4489C12.1053 12.5521 12.3965 12.731 12.5294 13.0498C12.6222 13.2725 12.6606 13.5066 12.6155 13.7384C12.5697 13.9728 12.4484 14.1547 12.3074 14.2863C12.0461 14.5304 11.7001 14.6215 11.4819 14.6527C11.1871 14.6947 10.914 14.4899 10.8719 14.1951C10.8297 13.9002 11.0346 13.6271 11.3294 13.5849C11.3806 13.5777 11.4367 13.564 11.4861 13.5448C11.5157 13.5332 11.5367 13.522 11.5508 13.5132C11.5495 13.5079 11.5477 13.5019 11.5454 13.495C11.5305 13.4839 11.4978 13.4621 11.4347 13.4341C11.3002 13.3741 11.0973 13.317 10.829 13.2722C10.3969 13.1998 9.85661 13.1692 9.29355 13.1796C9.27343 13.8408 9.27368 14.4722 9.30983 15.2065C9.59363 15.2682 9.88504 15.3165 10.1774 15.349C11.1786 15.4601 12.1163 15.3773 12.7696 15.0777C13.0892 14.9311 13.3238 14.7408 13.4769 14.5117C13.6275 14.2863 13.7221 13.9895 13.7089 13.5861C13.6786 12.6572 13.1876 11.85 12.3778 11.1648C11.5646 10.4766 10.4657 9.94575 9.33129 9.59037C8.19791 9.23531 7.06938 9.06797 6.22021 9.07903C5.94212 9.08265 5.70755 9.10531 5.51956 9.14105ZM8.21254 13.2494C8.1979 13.7846 8.19667 14.3101 8.21705 14.8895C7.95497 14.7922 7.71098 14.684 7.49265 14.5678C7.13656 14.3782 6.87342 14.1802 6.70907 13.9949C6.59108 13.8618 6.5416 13.7566 6.52469 13.6783L6.53328 13.6727C6.62781 13.6109 6.79405 13.5377 7.03975 13.4667C7.36291 13.3735 7.76929 13.2993 8.21254 13.2494ZM6.47773 13.7159C6.47773 13.7159 6.47884 13.7142 6.48226 13.711C6.47965 13.7143 6.47773 13.7159 6.47773 13.7159ZM17.3059 15.3169C17.3474 14.8636 17.368 14.4737 17.3651 14.1077H16.0454V13.0292H17.2821C17.2168 12.5854 17.1117 12.117 16.962 11.5488L18.0049 11.274C18.1811 11.9429 18.3015 12.4948 18.3709 13.0292H20V14.1077H18.4436C18.4462 14.5061 18.4244 14.9297 18.38 15.4151L17.3059 15.3169Z"
        clip-rule="evenodd"></path>
    <defs>
        <linearGradient id="a" x1="60" x2="60" y1="1.51" y2="121.36" gradientUnits="userSpaceOnUse">
            <stop offset="0" stop-color="#333"></stop>
            <stop offset="1" stop-color="#111"></stop>
        </linearGradient>
    </defs>
</svg>