<svg xmlns="http://www.w3.org/2000/svg" data-name="Layer 1" viewBox="0 0 61.94 63.76" id="netflix">
    <defs>
        <linearGradient id="a" x1="60" x2="60" y1="1.51" y2="121.36" gradientUnits="userSpaceOnUse">
            <stop offset="0" stop-color="#333"></stop>
            <stop offset="1" stop-color="#111"></stop>
        </linearGradient>
    </defs>
    <rect width="24" height="24" x=".463" fill="url(#a)" rx="8"></rect>
    <path fill="url(#b)"
        d="M34.8,12.63h5.53V47.18l-4.55.48c-.37.05-.76.06-1.13.13s-.69-.09-.85-.55q-2.09-6-4.21-12c-.77-2.2-1.55-4.4-2.47-6.6v.58c0,6.2,0,12.4,0,18.6,0,.62-.09.9-.81.95-1.35.1-2.69.34-4,.52-.21,0-.43,0-.67,0V12.63c.23,0,.44,0,.65,0,1.48,0,3,0,4.44,0a.77.77,0,0,1,.89.62Q31,23,34.48,32.78a1.18,1.18,0,0,0,.32.51Z"></path>
</svg>