<svg xmlns="http://www.w3.org/2000/svg" xmlns:xlink="http://www.w3.org/1999/xlink" viewBox="0,0,255.98959,255.98959" width="50px" height="50px"><g fill="#d1d5db" fill-rule="nonzero" stroke="none" stroke-width="1" stroke-linecap="butt" stroke-linejoin="miter" stroke-miterlimit="10" stroke-dasharray="" stroke-dashoffset="0" font-family="none" font-weight="none" font-size="none" text-anchor="none" style="mix-blend-mode: normal"><g transform="scale(5.12,5.12)"><path d="M9,4c-2.74952,0 -5,2.25048 -5,5v32c0,2.74952 2.25048,5 5,5h32c2.74952,0 5,-2.25048 5,-5v-32c0,-2.74952 -2.25048,-5 -5,-5zM9,6h32c1.66848,0 3,1.33152 3,3v32c0,1.66848 -1.33152,3 -3,3h-32c-1.66848,0 -3,-1.33152 -3,-3v-32c0,-1.66848 1.33152,-3 3,-3zM17,10c-0.27029,0.00053 -0.52885,0.11044 -0.7168,0.30469c-0.04668,0.04716 -0.08856,0.09884 -0.125,0.1543c0,0.00065 0,0.0013 0,0.00195c-0.10316,0.16088 -0.15806,0.34795 -0.1582,0.53906v29c0.00007,0.29386 0.12938,0.57282 0.35358,0.76279c0.2242,0.18997 0.5206,0.27172 0.81049,0.22354l6,-1c0.48228,-0.08025 0.83584,-0.49742 0.83594,-0.98633v-5.42773l1.99219,5.57813c0.06405,0.41029 0.37497,0.73832 0.78125,0.82422c0.0207,0.00457 0.04155,0.00848 0.0625,0.01172l6,1c0.03299,0.00557 0.06623,0.00948 0.09961,0.01172c0.03315,0.00231 0.06639,0.00296 0.09961,0.00195c0.53849,-0.01899 0.96513,-0.46118 0.96484,-1v-29c-0.00006,-0.55226 -0.44774,-0.99994 -1,-1h-6c-0.55226,0.00006 -0.99994,0.44774 -1,1v5.63281l-2.00391,-5.81055c-0.08359,-0.45981 -0.47448,-0.80042 -0.94141,-0.82031c-0.01821,-0.00115 -0.03644,-0.0018 -0.05469,-0.00195zM18.41797,12h3.86914l3.74609,10.86523c0.01311,0.05007 0.03009,0.09904 0.05078,0.14648l5.42188,15.72461l-3.76172,-0.62695l-3.7793,-10.58008c-0.01408,-0.05218 -0.03237,-0.10312 -0.05469,-0.15234zM28,12h4v22.0332l-4,-11.60156zM18,16.77148l4,11.20117v10.17969l-4,0.66797z"></path></g></g></svg>