<svg xmlns="http://www.w3.org/2000/svg" xmlns:xlink="http://www.w3.org/1999/xlink" viewBox="0,0,255.98959,255.98959" width="500px" height="500px"><g transform="translate(-51.19792,-51.19792) scale(1.4,1.4)"><g fill="#dddddd" fill-rule="nonzero" stroke="none" stroke-width="1" stroke-linecap="butt" stroke-linejoin="miter" stroke-miterlimit="10" stroke-dasharray="" stroke-dashoffset="0" font-family="none" font-weight="none" font-size="none" text-anchor="none" style="mix-blend-mode: normal"><path d="M36.56994,219.41965v-182.84971h182.84971v182.84971z" id="bgRectangle"></path></g><g fill="#000000" fill-rule="nonzero" stroke="none" stroke-width="1" stroke-linecap="butt" stroke-linejoin="miter" stroke-miterlimit="10" stroke-dasharray="" stroke-dashoffset="0" font-family="none" font-weight="none" font-size="none" text-anchor="none" style="mix-blend-mode: normal"><g transform="scale(5.12,5.12)"><path d="M9,4c-2.757,0 -5,2.243 -5,5v32c0,2.757 2.243,5 5,5h32c2.757,0 5,-2.243 5,-5v-32c0,-2.757 -2.243,-5 -5,-5zM18.41797,12h3.86914l3.74609,10.86523c0.01311,0.05007 0.03009,0.09904 0.05078,0.14648l5.42188,15.72461l-3.76172,-0.62695l-3.7793,-10.58008c-0.01408,-0.05218 -0.03237,-0.10312 -0.05469,-0.15234zM28,12h4v22.0332l-4,-11.60156zM18,16.77148l4,11.20117v10.17969l-4,0.66797z"></path></g></g></g></svg>