<?xml version="1.0" standalone="no"?>
<!DOCTYPE svg PUBLIC "-//W3C//DTD SVG 20010904//EN"
 "http://www.w3.org/TR/2001/REC-SVG-20010904/DTD/svg10.dtd">
<svg version="1.0" xmlns="http://www.w3.org/2000/svg"
 width="1024.000000pt" height="1024.000000pt" viewBox="0 0 1024.000000 1024.000000"
 preserveAspectRatio="xMidYMid meet">

<g transform="translate(0.000000,1024.000000) scale(0.100000,-0.100000)"
fill="#000000" stroke="none">
<path d="M4892 6401 c-12 -21 -22 -47 -22 -58 0 -33 -21 -43 -92 -43 -62 0
-69 -2 -85 -26 -17 -26 -16 -27 11 -51 16 -13 42 -27 58 -30 37 -7 45 -27 26
-62 -23 -39 -31 -87 -18 -110 18 -35 54 -26 104 27 l46 47 46 -47 c46 -48 78
-60 102 -36 18 18 15 41 -13 104 -14 31 -23 60 -20 64 3 5 20 11 38 15 49 10
77 32 77 60 0 32 -26 45 -93 45 -57 0 -69 8 -82 50 -8 27 -47 90 -56 90 -3 0
-15 -17 -27 -39z"/>
<path d="M3449 6370 c-78 -12 -211 -63 -293 -112 -135 -80 -280 -253 -342
-407 -57 -141 -57 -129 -55 -1091 l2 -885 29 -61 c45 -92 122 -144 212 -144
66 0 123 26 171 75 65 67 67 84 67 576 l0 438 228 3 c212 3 230 4 268 25 54
29 101 76 119 120 37 88 4 219 -69 280 -66 54 -115 63 -342 63 l-204 0 0 203
c0 181 3 207 21 246 33 75 84 127 156 163 64 31 73 33 217 38 143 5 154 7 205
35 172 94 167 309 -9 409 -53 30 -59 31 -190 33 -74 1 -160 -2 -191 -7z"/>
<path d="M7166 6365 c-57 -20 -108 -66 -138 -125 l-28 -52 0 -455 0 -455 -22
6 c-188 56 -334 58 -491 6 -279 -93 -485 -313 -569 -610 -7 -27 -12 -105 -13
-195 0 -130 3 -160 23 -225 87 -274 273 -468 539 -558 173 -60 389 -50 532 23
l45 23 36 -28 c45 -35 90 -50 154 -50 96 1 185 67 222 165 18 48 19 99 19
1195 0 953 -2 1152 -14 1184 -22 62 -94 133 -154 151 -62 18 -90 18 -141 0z
m-316 -1544 c52 -27 115 -84 136 -123 11 -20 14 -72 14 -211 l0 -184 -30 -41
c-56 -78 -150 -122 -259 -122 -123 0 -244 80 -300 199 -23 49 -26 68 -26 161
0 124 16 168 88 242 76 78 155 110 262 105 47 -3 84 -11 115 -26z"/>
<path d="M4402 6058 c-11 -18 -27 -63 -37 -101 -21 -78 -15 -75 -153 -79 -100
-3 -112 -9 -112 -60 0 -23 13 -37 73 -82 101 -74 98 -69 71 -151 -36 -107 -29
-149 26 -167 23 -8 76 17 132 62 28 22 55 40 60 40 6 0 38 -21 72 -46 85 -65
97 -69 134 -50 45 23 47 49 13 146 -17 47 -31 88 -31 91 0 3 38 32 85 63 83
56 85 58 85 97 0 37 -3 41 -36 55 -24 10 -50 13 -74 9 -21 -4 -58 -3 -83 0
l-45 7 -23 80 c-29 97 -47 118 -99 118 -33 0 -41 -5 -58 -32z"/>
<path d="M4395 5357 c-26 -6 -57 -28 -91 -62 -87 -87 -84 -60 -84 -794 0 -618
1 -637 21 -681 43 -96 122 -150 216 -150 72 0 127 25 172 75 67 76 65 66 71
535 l5 425 25 43 c31 55 124 118 185 128 123 18 248 -50 297 -161 9 -22 14
-136 18 -450 5 -386 7 -423 24 -458 90 -182 333 -182 423 1 l28 57 0 435 c0
425 -1 437 -23 515 -27 92 -64 166 -127 250 -181 241 -541 346 -803 233 l-79
-34 -44 38 c-44 39 -121 69 -168 67 -14 -1 -44 -6 -66 -12z"/>
</g>
</svg>
